<?xml version="1.0" encoding="UTF-8"?><svg id="Layer_2" xmlns="http://www.w3.org/2000/svg" viewBox="0 0 1024 279.38"><defs><style>.cls-1{fill:#0aa70b;}.cls-2{fill:#fa4616;}.cls-3{fill:#7a9a01;}.cls-4{fill:#ffd100;}.cls-5{fill:#ff9e1b;}.cls-6{fill:#004b87;}.cls-7{fill:#603d20;}.cls-8{fill:#ffc72c;}.cls-9{isolation:isolate;opacity:.25;}.cls-9,.cls-10,.cls-11{fill-rule:evenodd;}.cls-12{fill:#bfb800;}.cls-13{fill:#fc4c02;}.cls-14{fill:#7bafd4;}.cls-15{fill:#fbdd40;}.cls-16{fill:#5f259f;}.cls-10{fill:#fcfcfc;}.cls-11{fill:#ba0c2f;}.cls-17{fill:#003da5;}</style></defs><g id="svg2"><path id="path3311" class="cls-11" d="m184.54,0h614.4v279.38H184.54S184.54,0,184.54,0Z"/><path id="path3323" class="cls-10" d="m116.72,0h184.63v279.38H116.72V0Z"/><g id="g5544"><g id="g5304"><g id="g5248"><path id="path4-1-4-3-2-2-6-5-6-1-3-4-1-8-2-7-3-9-6-5-0-0-4-0-8-9-3-0-61-4-9-6-7-9" class="cls-2" d="m123.04,0h18.22v279.38h-18.22V0Z"/><path id="path4-1-4-3-2-2-6-5-6-1-3-4-1-8-2-7-3-9-6-5-0-0-2" class="cls-4" d="m98.21,0h16.14v279.38h-16.14V0Z"/><path id="path4-1-4-3-2-2-6-5-6-1-3-4-1-8-7" class="cls-1" d="m66.82,0h15.98v279.38h-15.98V0Z"/><path id="path4-1-4-3-2-2-6-5-6-1-3-4-1-8-2-7-9" class="cls-3" d="m82.06,0h8.07v279.38h-8.07V0Z"/><path id="path4-1-4-3-2-2-6-5-6-1-3-4-1-8-2-7-3-9-6" class="cls-12" d="m88.79,0h9.42v279.38h-9.42V0Z"/><path id="path4-1" class="cls-16" d="m0,0h45.74v279.38H0V0Z"/><path id="path4-1-4-3-2-2-6-5-6" class="cls-17" d="m39.01,0h29.6v279.38h-29.6V0Z"/><path id="path4" class="cls-7" d="m0,0h1.35v279.38H0V0Z"/><path id="path4-7" class="cls-7" d="m2.69,0h1.35v279.38h-1.35V0Z"/><path id="path4-0" class="cls-7" d="m5.38,0h1.35v279.38h-1.35V0Z"/><path id="path4-7-4" class="cls-7" d="m8.07,0h1.35v279.38h-1.35V0Z"/><path id="path4-8" class="cls-7" d="m10.76,0h1.35v279.38h-1.35V0Z"/><path id="path4-7-45" class="cls-7" d="m13.45,0h1.35v279.38h-1.35V0Z"/><path id="path4-17" class="cls-7" d="m16.14,0h1.35v279.38h-1.35V0Z"/><path id="path4-7-1" class="cls-7" d="m18.83,0h1.35v279.38h-1.35V0Z"/><path id="path4-76" class="cls-7" d="m21.52,0h1.35v279.38h-1.35V0Z"/><path id="path4-7-2" class="cls-7" d="m24.22,0h1.35v279.38h-1.35V0Z"/><path id="path4-1-4-3-2-2" class="cls-17" d="m30.94,0h1.35v279.38h-1.35V0Z"/><path id="path4-1-4-3-2-2-6" class="cls-17" d="m33.63,0h1.35v279.38h-1.35V0Z"/><path id="path4-1-4-3-2-2-6-5" class="cls-17" d="m36.32,0h1.35v279.38h-1.35V0Z"/><path id="path4-1-4-3-2-2-6-5-1" class="cls-6" d="m45.74,0h1.35v279.38h-1.35V0Z"/><path id="path4-1-4-3-2-2-6-5-1-9" class="cls-6" d="m48.43,0h1.35v279.38h-1.35V0Z"/><path id="path4-1-4-3-2-2-6-5-1-9-7" class="cls-6" d="m51.12,0h1.35v279.38h-1.35V0Z"/><path id="path4-1-4-3-2-2-6-5-1-9-5" class="cls-6" d="m53.81,0h1.35v279.38h-1.35V0Z"/><path id="path4-1-4-3-2-2-6-5-6-1" class="cls-14" d="m56.5,0h1.35v279.38h-1.35V0Z"/><path id="path4-1-4-3-2-2-6-5-6-1-3" class="cls-14" d="m59.19,0h1.35v279.38h-1.35V0Z"/><path id="path4-1-4-3-2-2-6-5-6-1-3-4" class="cls-14" d="m61.88,0h4.04v279.38h-4.04V0Z"/><path id="path4-1-4-3-2-2-6-5-6-1-3-4-1" class="cls-1" d="m63.23,0h1.35v279.38h-1.35V0Z"/><path id="path4-1-4-3-2-2-6-5-6-1-3-4-1-8" class="cls-1" d="m65.92,0h1.35v279.38h-1.35V0Z"/><path id="path4-1-4-3-2-2-6-5-6-1-3-4-1-8-2" class="cls-3" d="m76.68,0h1.35v279.38h-1.35V0Z"/><path id="path4-1-4-3-2-2-6-5-6-1-3-4-1-8-2-7" class="cls-3" d="m79.37,0h1.35v279.38h-1.35V0Z"/><path id="path4-1-4-3-2-2-6-5-6-1-3-4-1-8-2-7-3" class="cls-12" d="m83.41,0h1.35v279.38h-1.35V0Z"/><path id="path4-1-4-3-2-2-6-5-6-1-3-4-1-8-2-7-3-9" class="cls-12" d="m86.1,0h1.35v279.38h-1.35V0Z"/><path id="path4-1-4-3-2-2-6-5-6-1-3-4-1-8-2-7-3-9-6-5-0" class="cls-4" d="m90.14,0h1.35v279.38h-1.35V0Z"/><path id="path4-1-4-3-2-2-6-5-6-1-3-4-1-8-2-7-3-9-6-5-0-8" class="cls-4" d="m92.83,0h1.35v279.38h-1.35V0Z"/><path id="path4-1-4-3-2-2-6-5-6-1-3-4-1-8-2-7-3-9-6-5-0-0" class="cls-4" d="m95.52,0h1.35v279.38h-1.35V0Z"/><path id="path4-1-4-3-2-2-6-5-6-1-3-4-1-8-2-7-3-9-6-5-0-0-4" class="cls-15" d="m99.55,0h1.35v279.38h-1.35V0Z"/><path id="path4-1-4-3-2-2-6-5-6-1-3-4-1-8-2-7-3-9-6-5-0-0-4-6" class="cls-15" d="m102.24,0h1.35v279.38h-1.35V0Z"/><path id="path4-1-4-3-2-2-6-5-6-1-3-4-1-8-2-7-3-9-6-5-0-0-4-0" class="cls-15" d="m104.93,0h1.35v279.38h-1.35V0Z"/><path id="path4-1-4-3-2-2-6-5-6-1-3-4-1-8-2-7-3-9-6-5-0-0-4-00" class="cls-15" d="m107.62,0h1.35v279.38h-1.35V0Z"/><path id="path4-1-4-3-2-2-6-5-6-1-3-4-1-8-2-7-3-9-6-5-0-0-4-6-1" class="cls-15" d="m110.32,0h1.35v279.38h-1.35V0Z"/><path id="path4-1-4-3-2-2-6-5-6-1-3-4-1-8-2-7-3-9-6-5-0-0-4-0-8" class="cls-15" d="m113.01,0h1.35v279.38h-1.35V0Z"/><path id="path4-1-4-3-2-2-6-5-6-1-3-4-1-8-2-7-3-9-6-5-0-0-4-0-8-9" class="cls-8" d="m114.35,0h8.07v279.38h-8.07V0Z"/><path id="path4-1-4-3-2-2-6-5-6-1-3-4-1-8-2-7-3-9-6-5-0-0-4-0-8-9-3" class="cls-5" d="m115.7,0h1.35v279.38h-1.35V0Z"/><path id="path4-1-4-3-2-2-6-5-6-1-3-4-1-8-2-7-3-9-6-5-0-0-4-0-8-9-3-4" class="cls-5" d="m118.39,0h1.35v279.38h-1.35V0Z"/><path id="path4-1-4-3-2-2-6-5-6-1-3-4-1-8-2-7-3-9-6-5-0-0-4-0-8-9-3-0" class="cls-5" d="m121.08,0h1.35v279.38h-1.35V0Z"/><path id="path4-1-4-3-2-2-6-5-6-1-3-4-1-8-2-7-3-9-6-5-0-0-4-0-8-9-3-0-6" class="cls-5" d="m123.77,0h1.35v279.38h-1.35V0Z"/><path id="path4-1-4-3-2-2-6-5-6-1-3-4-1-8-2-7-3-9-6-5-0-0-4-0-8-9-3-0-61" class="cls-13" d="m122.42,0h1.35v279.38h-1.35V0Z"/><path id="path4-1-4-3-2-2-6-5-6-1-3-4-1-8-2-7-3-9-6-5-0-0-4-0-8-9-3-0-6-8" class="cls-5" d="m126.46,0h1.35v279.38h-1.35V0Z"/><path id="path4-1-4-3-2-2-6-5-6-1-3-4-1-8-2-7-3-9-6-5-0-0-4-0-8-9-3-0-61-4" class="cls-13" d="m125.11,0h1.35v279.38h-1.35V0Z"/><path id="path4-1-4-3-2-2-6-5-6-1-3-4-1-8-2-7-3-9-6-5-0-0-4-0-8-9-3-0-61-4-9" class="cls-13" d="m127.8,0h1.35v279.38h-1.35V0Z"/><path id="path4-1-4-3-2-2-6-5-6-1-3-4-1-8-2-7-3-9-6-5-0-0-4-0-8-9-3-0-61-4-9-3" class="cls-13" d="m130.49,0h1.35v279.38h-1.35V0Z"/><path id="path4-1-4-3-2-2-6-5-6-1-3-4-1-8-2-7-3-9-6-5-0-0-4-0-8-9-3-0-61-4-9-3-8" class="cls-13" d="m133.19,0h1.35v279.38h-1.35V0Z"/><path id="path4-1-4-3-2-2-6-5-6-1-3-4-1-8-2-7-3-9-6-5-0-0-4-0-8-9-3-0-61-4-9-3-2" class="cls-13" d="m135.88,0h1.35v279.38h-1.35V0Z"/></g></g><g id="g5304-3"><g id="g5248-5"><path id="path4-1-4-3-2-2-6-5-6-1-3-4-1-8-2-7-3-9-6-5-0-0-4-0-8-9-3-0-61-4-9-6-7-9-9" class="cls-2" d="m159.48,0h-18.22v279.38h18.22V0Z"/><path id="path4-1-4-3-2-2-6-5-6-1-3-4-1-8-2-7-3-9-6-5-0-0-2-8" class="cls-4" d="m184.31,0h-16.14v279.38h16.14V0Z"/><path id="path4-1-4-3-2-2-6-5-6-1-3-4-1-8-7-4" class="cls-1" d="m215.69,0h-15.98v279.38h15.98V0Z"/><path id="path4-1-4-3-2-2-6-5-6-1-3-4-1-8-2-7-9-0" class="cls-3" d="m200.45,0h-8.07v279.38h8.07V0Z"/><path id="path4-1-4-3-2-2-6-5-6-1-3-4-1-8-2-7-3-9-6-7" class="cls-12" d="m193.72,0h-9.42v279.38h9.42V0Z"/><path id="path4-1-6" class="cls-16" d="m282.51,0h-45.74v279.38h45.74V0Z"/><path id="path4-1-4-3-2-2-6-5-6-3" class="cls-17" d="m243.5,0h-29.6v279.38h29.6V0Z"/><path id="path4-6" class="cls-7" d="m282.51,0h-1.35v279.38h1.35V0Z"/><path id="path4-7-15" class="cls-7" d="m279.82,0h-1.35v279.38h1.35V0Z"/><path id="path4-0-4" class="cls-7" d="m277.13,0h-1.35v279.38h1.35V0Z"/><path id="path4-7-4-2" class="cls-7" d="m274.44,0h-1.35v279.38h1.35V0Z"/><path id="path4-8-0" class="cls-7" d="m271.75,0h-1.35v279.38h1.35V0Z"/><path id="path4-7-45-9" class="cls-7" d="m269.06,0h-1.35v279.38h1.35V0Z"/><path id="path4-17-7" class="cls-7" d="m266.37,0h-1.35v279.38h1.35V0Z"/><path id="path4-7-1-3" class="cls-7" d="m263.68,0h-1.35v279.38h1.35V0Z"/><path id="path4-76-7" class="cls-7" d="m260.99,0h-1.35v279.38h1.35V0Z"/><path id="path4-7-2-2" class="cls-7" d="m258.3,0h-1.35v279.38h1.35V0Z"/><path id="path4-1-4-3-2-2-60" class="cls-17" d="m251.57,0h-1.35v279.38h1.35V0Z"/><path id="path4-1-4-3-2-2-6-1" class="cls-17" d="m248.88,0h-1.35v279.38h1.35V0Z"/><path id="path4-1-4-3-2-2-6-5-65" class="cls-17" d="m246.19,0h-1.35v279.38h1.35V0Z"/><path id="path4-1-4-3-2-2-6-5-1-7" class="cls-6" d="m236.77,0h-1.35v279.38h1.35V0Z"/><path id="path4-1-4-3-2-2-6-5-1-9-54" class="cls-6" d="m234.08,0h-1.35v279.38h1.35V0Z"/><path id="path4-1-4-3-2-2-6-5-1-9-7-1" class="cls-6" d="m231.39,0h-1.35v279.38h1.35V0Z"/><path id="path4-1-4-3-2-2-6-5-1-9-5-2" class="cls-6" d="m228.7,0h-1.35v279.38h1.35V0Z"/><path id="path4-1-4-3-2-2-6-5-6-1-0" class="cls-14" d="m226.01,0h-1.35v279.38h1.35V0Z"/><path id="path4-1-4-3-2-2-6-5-6-1-3-0" class="cls-14" d="m223.32,0h-1.35v279.38h1.35V0Z"/><path id="path4-1-4-3-2-2-6-5-6-1-3-4-14" class="cls-14" d="m220.63,0h-4.04v279.38h4.04V0Z"/><path id="path4-1-4-3-2-2-6-5-6-1-3-4-1-6" class="cls-1" d="m219.28,0h-1.35v279.38h1.35V0Z"/><path id="path4-1-4-3-2-2-6-5-6-1-3-4-1-8-0" class="cls-1" d="m216.59,0h-1.35v279.38h1.35V0Z"/><path id="path4-1-4-3-2-2-6-5-6-1-3-4-1-8-2-71" class="cls-3" d="m205.83,0h-1.35v279.38h1.35V0Z"/><path id="path4-1-4-3-2-2-6-5-6-1-3-4-1-8-2-7-7" class="cls-3" d="m203.14,0h-1.35v279.38h1.35V0Z"/><path id="path4-1-4-3-2-2-6-5-6-1-3-4-1-8-2-7-3-7" class="cls-12" d="m199.11,0h-1.35v279.38h1.35V0Z"/><path id="path4-1-4-3-2-2-6-5-6-1-3-4-1-8-2-7-3-9-7" class="cls-12" d="m196.41,0h-1.35v279.38h1.35V0Z"/><path id="path4-1-4-3-2-2-6-5-6-1-3-4-1-8-2-7-3-9-6-5-0-7" class="cls-4" d="m192.38,0h-1.35v279.38h1.35V0Z"/><path id="path4-1-4-3-2-2-6-5-6-1-3-4-1-8-2-7-3-9-6-5-0-8-3" class="cls-4" d="m189.69,0h-1.35v279.38h1.35V0Z"/><path id="path4-1-4-3-2-2-6-5-6-1-3-4-1-8-2-7-3-9-6-5-0-0-3" class="cls-4" d="m187,0h-1.35v279.38h1.35V0Z"/><path id="path4-1-4-3-2-2-6-5-6-1-3-4-1-8-2-7-3-9-6-5-0-0-4-5" class="cls-15" d="m182.96,0h-1.35v279.38h1.35V0Z"/><path id="path4-1-4-3-2-2-6-5-6-1-3-4-1-8-2-7-3-9-6-5-0-0-4-6-9" class="cls-15" d="m180.27,0h-1.35v279.38h1.35V0Z"/><path id="path4-1-4-3-2-2-6-5-6-1-3-4-1-8-2-7-3-9-6-5-0-0-4-0-9" class="cls-15" d="m177.58,0h-1.35v279.38h1.35V0Z"/><path id="path4-1-4-3-2-2-6-5-6-1-3-4-1-8-2-7-3-9-6-5-0-0-4-00-8" class="cls-15" d="m174.89,0h-1.35v279.38h1.35V0Z"/><path id="path4-1-4-3-2-2-6-5-6-1-3-4-1-8-2-7-3-9-6-5-0-0-4-6-1-1" class="cls-15" d="m172.2,0h-1.35v279.38h1.35V0Z"/><path id="path4-1-4-3-2-2-6-5-6-1-3-4-1-8-2-7-3-9-6-5-0-0-4-0-8-8" class="cls-15" d="m169.51,0h-1.35v279.38h1.35V0Z"/><path id="path4-1-4-3-2-2-6-5-6-1-3-4-1-8-2-7-3-9-6-5-0-0-4-0-8-9-2" class="cls-8" d="m168.16,0h-8.07v279.38h8.07V0Z"/><path id="path4-1-4-3-2-2-6-5-6-1-3-4-1-8-2-7-3-9-6-5-0-0-4-0-8-9-3-6" class="cls-5" d="m166.82,0h-1.35v279.38h1.35V0Z"/><path id="path4-1-4-3-2-2-6-5-6-1-3-4-1-8-2-7-3-9-6-5-0-0-4-0-8-9-3-4-6" class="cls-5" d="m164.13,0h-1.35v279.38h1.35V0Z"/><path id="path4-1-4-3-2-2-6-5-6-1-3-4-1-8-2-7-3-9-6-5-0-0-4-0-8-9-3-0-0" class="cls-5" d="m161.44,0h-1.35v279.38h1.35V0Z"/><path id="path4-1-4-3-2-2-6-5-6-1-3-4-1-8-2-7-3-9-6-5-0-0-4-0-8-9-3-0-6-3" class="cls-5" d="m158.75,0h-1.35v279.38h1.35V0Z"/><path id="path4-1-4-3-2-2-6-5-6-1-3-4-1-8-2-7-3-9-6-5-0-0-4-0-8-9-3-0-61-8" class="cls-13" d="m160.09,0h-1.35v279.38h1.35V0Z"/><path id="path4-1-4-3-2-2-6-5-6-1-3-4-1-8-2-7-3-9-6-5-0-0-4-0-8-9-3-0-6-8-0" class="cls-5" d="m156.06,0h-1.35v279.38h1.35V0Z"/><path id="path4-1-4-3-2-2-6-5-6-1-3-4-1-8-2-7-3-9-6-5-0-0-4-0-8-9-3-0-61-4-1" class="cls-13" d="m157.4,0h-1.35v279.38h1.35V0Z"/><path id="path4-1-4-3-2-2-6-5-6-1-3-4-1-8-2-7-3-9-6-5-0-0-4-0-8-9-3-0-61-4-9-2" class="cls-13" d="m154.71,0h-1.35v279.38h1.35V0Z"/><path id="path4-1-4-3-2-2-6-5-6-1-3-4-1-8-2-7-3-9-6-5-0-0-4-0-8-9-3-0-61-4-9-3-5" class="cls-13" d="m152.02,0h-1.35v279.38h1.35V0Z"/><path id="path4-1-4-3-2-2-6-5-6-1-3-4-1-8-2-7-3-9-6-5-0-0-4-0-8-9-3-0-61-4-9-3-8-0" class="cls-13" d="m149.33,0h-1.35v279.38h1.35V0Z"/><path id="path4-1-4-3-2-2-6-5-6-1-3-4-1-8-2-7-3-9-6-5-0-0-4-0-8-9-3-0-61-4-9-3-2-9" class="cls-13" d="m146.64,0h-1.35v279.38h1.35V0Z"/></g></g></g><path id="path3325" class="cls-10" d="m722.65,0h204.03v279.38h-204.03V0Z"/><g id="g5544-2"><g id="g5304-2"><g id="g5248-2"><path id="path4-1-4-3-2-2-6-5-6-1-3-4-1-8-2-7-3-9-6-5-0-0-4-0-8-9-3-0-61-4-9-6-7-9-2" class="cls-2" d="m864.52,0h18.22v279.38h-18.22V0Z"/><path id="path4-1-4-3-2-2-6-5-6-1-3-4-1-8-2-7-3-9-6-5-0-0-2-2" class="cls-4" d="m839.69,0h16.14v279.38h-16.14V0Z"/><path id="path4-1-4-3-2-2-6-5-6-1-3-4-1-8-7-2" class="cls-1" d="m808.31,0h15.98v279.38h-15.98V0Z"/><path id="path4-1-4-3-2-2-6-5-6-1-3-4-1-8-2-7-9-2" class="cls-3" d="m823.55,0h8.07v279.38h-8.07V0Z"/><path id="path4-1-4-3-2-2-6-5-6-1-3-4-1-8-2-7-3-9-6-2" class="cls-12" d="m830.28,0h9.42v279.38h-9.42V0Z"/><path id="path4-1-2" class="cls-16" d="m741.49,0h45.74v279.38h-45.74V0Z"/><path id="path4-1-4-3-2-2-6-5-6-2" class="cls-17" d="m780.5,0h29.6v279.38h-29.6V0Z"/><path id="path4-2" class="cls-7" d="m741.49,0h1.35v279.38h-1.35V0Z"/><path id="path4-7-2" class="cls-7" d="m744.18,0h1.35v279.38h-1.35V0Z"/><path id="path4-0-2" class="cls-7" d="m746.87,0h1.35v279.38h-1.35V0Z"/><path id="path4-7-4-2" class="cls-7" d="m749.56,0h1.35v279.38h-1.35V0Z"/><path id="path4-8-2" class="cls-7" d="m752.25,0h1.35v279.38h-1.35V0Z"/><path id="path4-7-45-2" class="cls-7" d="m754.94,0h1.35v279.38h-1.35V0Z"/><path id="path4-17-2" class="cls-7" d="m757.63,0h1.35v279.38h-1.35V0Z"/><path id="path4-7-1-2" class="cls-7" d="m760.32,0h1.35v279.38h-1.35V0Z"/><path id="path4-76-2" class="cls-7" d="m763.01,0h1.35v279.38h-1.35V0Z"/><path id="path4-7-2-2" class="cls-7" d="m765.7,0h1.35v279.38h-1.35V0Z"/><path id="path4-1-4-3-2-2-2" class="cls-17" d="m772.43,0h1.35v279.38h-1.35V0Z"/><path id="path4-1-4-3-2-2-6-2" class="cls-17" d="m775.12,0h1.35v279.38h-1.35V0Z"/><path id="path4-1-4-3-2-2-6-5-2" class="cls-17" d="m777.81,0h1.35v279.38h-1.35V0Z"/><path id="path4-1-4-3-2-2-6-5-1-2" class="cls-6" d="m787.23,0h1.35v279.38h-1.35V0Z"/><path id="path4-1-4-3-2-2-6-5-1-9-2" class="cls-6" d="m789.92,0h1.35v279.38h-1.35V0Z"/><path id="path4-1-4-3-2-2-6-5-1-9-7-2" class="cls-6" d="m792.61,0h1.35v279.38h-1.35V0Z"/><path id="path4-1-4-3-2-2-6-5-1-9-5-2" class="cls-6" d="m795.3,0h1.35v279.38h-1.35V0Z"/><path id="path4-1-4-3-2-2-6-5-6-1-2" class="cls-14" d="m797.99,0h1.35v279.38h-1.35V0Z"/><path id="path4-1-4-3-2-2-6-5-6-1-3-2" class="cls-14" d="m800.68,0h1.35v279.38h-1.35V0Z"/><path id="path4-1-4-3-2-2-6-5-6-1-3-4-2" class="cls-14" d="m803.37,0h4.04v279.38h-4.04V0Z"/><path id="path4-1-4-3-2-2-6-5-6-1-3-4-1-2" class="cls-1" d="m804.72,0h1.35v279.38h-1.35V0Z"/><path id="path4-1-4-3-2-2-6-5-6-1-3-4-1-8-2" class="cls-1" d="m807.41,0h1.35v279.38h-1.35V0Z"/><path id="path4-1-4-3-2-2-6-5-6-1-3-4-1-8-2-2" class="cls-3" d="m818.17,0h1.35v279.38h-1.35V0Z"/><path id="path4-1-4-3-2-2-6-5-6-1-3-4-1-8-2-7-2" class="cls-3" d="m820.86,0h1.35v279.38h-1.35V0Z"/><path id="path4-1-4-3-2-2-6-5-6-1-3-4-1-8-2-7-3-2" class="cls-12" d="m824.89,0h1.35v279.38h-1.35V0Z"/><path id="path4-1-4-3-2-2-6-5-6-1-3-4-1-8-2-7-3-9-2" class="cls-12" d="m827.59,0h1.35v279.38h-1.35V0Z"/><path id="path4-1-4-3-2-2-6-5-6-1-3-4-1-8-2-7-3-9-6-5-0-2" class="cls-4" d="m831.62,0h1.35v279.38h-1.35V0Z"/><path id="path4-1-4-3-2-2-6-5-6-1-3-4-1-8-2-7-3-9-6-5-0-8-2" class="cls-4" d="m834.31,0h1.35v279.38h-1.35V0Z"/><path id="path4-1-4-3-2-2-6-5-6-1-3-4-1-8-2-7-3-9-6-5-0-0-2" class="cls-4" d="m837,0h1.35v279.38h-1.35V0Z"/><path id="path4-1-4-3-2-2-6-5-6-1-3-4-1-8-2-7-3-9-6-5-0-0-4-2" class="cls-15" d="m841.04,0h1.35v279.38h-1.35V0Z"/><path id="path4-1-4-3-2-2-6-5-6-1-3-4-1-8-2-7-3-9-6-5-0-0-4-6-2" class="cls-15" d="m843.73,0h1.35v279.38h-1.35V0Z"/><path id="path4-1-4-3-2-2-6-5-6-1-3-4-1-8-2-7-3-9-6-5-0-0-4-0-2" class="cls-15" d="m846.42,0h1.35v279.38h-1.35V0Z"/><path id="path4-1-4-3-2-2-6-5-6-1-3-4-1-8-2-7-3-9-6-5-0-0-4-00-2" class="cls-15" d="m849.11,0h1.35v279.38h-1.35V0Z"/><path id="path4-1-4-3-2-2-6-5-6-1-3-4-1-8-2-7-3-9-6-5-0-0-4-6-1-2" class="cls-15" d="m851.8,0h1.35v279.38h-1.35V0Z"/><path id="path4-1-4-3-2-2-6-5-6-1-3-4-1-8-2-7-3-9-6-5-0-0-4-0-8-2" class="cls-15" d="m854.49,0h1.35v279.38h-1.35V0Z"/><path id="path4-1-4-3-2-2-6-5-6-1-3-4-1-8-2-7-3-9-6-5-0-0-4-0-8-9-2" class="cls-8" d="m855.84,0h8.07v279.38h-8.07V0Z"/><path id="path4-1-4-3-2-2-6-5-6-1-3-4-1-8-2-7-3-9-6-5-0-0-4-0-8-9-3-2" class="cls-5" d="m857.18,0h1.35v279.38h-1.35V0Z"/><path id="path4-1-4-3-2-2-6-5-6-1-3-4-1-8-2-7-3-9-6-5-0-0-4-0-8-9-3-4-2" class="cls-5" d="m859.87,0h1.35v279.38h-1.35V0Z"/><path id="path4-1-4-3-2-2-6-5-6-1-3-4-1-8-2-7-3-9-6-5-0-0-4-0-8-9-3-0-2" class="cls-5" d="m862.56,0h1.35v279.38h-1.35V0Z"/><path id="path4-1-4-3-2-2-6-5-6-1-3-4-1-8-2-7-3-9-6-5-0-0-4-0-8-9-3-0-6-2" class="cls-5" d="m865.25,0h1.35v279.38h-1.35V0Z"/><path id="path4-1-4-3-2-2-6-5-6-1-3-4-1-8-2-7-3-9-6-5-0-0-4-0-8-9-3-0-61-2" class="cls-13" d="m863.91,0h1.35v279.38h-1.35V0Z"/><path id="path4-1-4-3-2-2-6-5-6-1-3-4-1-8-2-7-3-9-6-5-0-0-4-0-8-9-3-0-6-8-2" class="cls-5" d="m867.94,0h1.35v279.38h-1.35V0Z"/><path id="path4-1-4-3-2-2-6-5-6-1-3-4-1-8-2-7-3-9-6-5-0-0-4-0-8-9-3-0-61-4-2" class="cls-13" d="m866.6,0h1.35v279.38h-1.35V0Z"/><path id="path4-1-4-3-2-2-6-5-6-1-3-4-1-8-2-7-3-9-6-5-0-0-4-0-8-9-3-0-61-4-9-2" class="cls-13" d="m869.29,0h1.35v279.38h-1.35V0Z"/><path id="path4-1-4-3-2-2-6-5-6-1-3-4-1-8-2-7-3-9-6-5-0-0-4-0-8-9-3-0-61-4-9-3-2" class="cls-13" d="m871.98,0h1.35v279.38h-1.35V0Z"/><path id="path4-1-4-3-2-2-6-5-6-1-3-4-1-8-2-7-3-9-6-5-0-0-4-0-8-9-3-0-61-4-9-3-8-2" class="cls-13" d="m874.67,0h1.35v279.38h-1.35V0Z"/><path id="path4-1-4-3-2-2-6-5-6-1-3-4-1-8-2-7-3-9-6-5-0-0-4-0-8-9-3-0-61-4-9-3-2-2" class="cls-13" d="m877.36,0h1.35v279.38h-1.35V0Z"/></g></g><g id="g5304-3-2"><g id="g5248-5-2"><path id="path4-1-4-3-2-2-6-5-6-1-3-4-1-8-2-7-3-9-6-5-0-0-4-0-8-9-3-0-61-4-9-6-7-9-9-2" class="cls-2" d="m900.96,0h-18.22v279.38h18.22V0Z"/><path id="path4-1-4-3-2-2-6-5-6-1-3-4-1-8-2-7-3-9-6-5-0-0-2-8-2" class="cls-4" d="m925.79,0h-16.14v279.38h16.14V0Z"/><path id="path4-1-4-3-2-2-6-5-6-1-3-4-1-8-7-4-2" class="cls-1" d="m957.18,0h-15.98v279.38h15.98V0Z"/><path id="path4-1-4-3-2-2-6-5-6-1-3-4-1-8-2-7-9-0-2" class="cls-3" d="m941.94,0h-8.07v279.38h8.07V0Z"/><path id="path4-1-4-3-2-2-6-5-6-1-3-4-1-8-2-7-3-9-6-7-2" class="cls-12" d="m935.21,0h-9.42v279.38h9.42V0Z"/><path id="path4-1-6-2" class="cls-16" d="m1024,0h-45.74v279.38h45.74V0Z"/><path id="path4-1-4-3-2-2-6-5-6-3-2" class="cls-17" d="m984.99,0h-29.6v279.38h29.6V0Z"/><path id="path4-6-2" class="cls-7" d="m1024,0h-1.35v279.38h1.35V0Z"/><path id="path4-7-15-2" class="cls-7" d="m1021.31,0h-1.35v279.38h1.35V0Z"/><path id="path4-0-4-2" class="cls-7" d="m1018.62,0h-1.35v279.38h1.35V0Z"/><path id="path4-7-4-2-2" class="cls-7" d="m1015.93,0h-1.35v279.38h1.35V0Z"/><path id="path4-8-0-2" class="cls-7" d="m1013.24,0h-1.35v279.38h1.35V0Z"/><path id="path4-7-45-9-2" class="cls-7" d="m1010.55,0h-1.35v279.38h1.35V0Z"/><path id="path4-17-7-2" class="cls-7" d="m1007.86,0h-1.35v279.38h1.35V0Z"/><path id="path4-7-1-3-2" class="cls-7" d="m1005.17,0h-1.35v279.38h1.35V0Z"/><path id="path4-76-7-2" class="cls-7" d="m1002.48,0h-1.35v279.38h1.35V0Z"/><path id="path4-7-2-2-2" class="cls-7" d="m999.78,0h-1.35v279.38h1.35V0Z"/><path id="path4-1-4-3-2-2-60-2" class="cls-17" d="m993.06,0h-1.35v279.38h1.35V0Z"/><path id="path4-1-4-3-2-2-6-1-2" class="cls-17" d="m990.37,0h-1.35v279.38h1.35V0Z"/><path id="path4-1-4-3-2-2-6-5-65-2" class="cls-17" d="m987.68,0h-1.35v279.38h1.35V0Z"/><path id="path4-1-4-3-2-2-6-5-1-7-2" class="cls-6" d="m978.26,0h-1.35v279.38h1.35V0Z"/><path id="path4-1-4-3-2-2-6-5-1-9-54-2" class="cls-6" d="m975.57,0h-1.35v279.38h1.35V0Z"/><path id="path4-1-4-3-2-2-6-5-1-9-7-1-2" class="cls-6" d="m972.88,0h-1.35v279.38h1.35V0Z"/><path id="path4-1-4-3-2-2-6-5-1-9-5-2-2" class="cls-6" d="m970.19,0h-1.35v279.38h1.35V0Z"/><path id="path4-1-4-3-2-2-6-5-6-1-0-2" class="cls-14" d="m967.5,0h-1.35v279.38h1.35V0Z"/><path id="path4-1-4-3-2-2-6-5-6-1-3-0-2" class="cls-14" d="m964.81,0h-1.35v279.38h1.35V0Z"/><path id="path4-1-4-3-2-2-6-5-6-1-3-4-14-2" class="cls-14" d="m962.12,0h-4.04v279.38h4.04V0Z"/><path id="path4-1-4-3-2-2-6-5-6-1-3-4-1-6-2" class="cls-1" d="m960.77,0h-1.35v279.38h1.35V0Z"/><path id="path4-1-4-3-2-2-6-5-6-1-3-4-1-8-0-2" class="cls-1" d="m958.08,0h-1.35v279.38h1.35V0Z"/><path id="path4-1-4-3-2-2-6-5-6-1-3-4-1-8-2-71-2" class="cls-3" d="m947.32,0h-1.35v279.38h1.35V0Z"/><path id="path4-1-4-3-2-2-6-5-6-1-3-4-1-8-2-7-7-2" class="cls-3" d="m944.63,0h-1.35v279.38h1.35V0Z"/><path id="path4-1-4-3-2-2-6-5-6-1-3-4-1-8-2-7-3-7-2" class="cls-12" d="m940.59,0h-1.35v279.38h1.35V0Z"/><path id="path4-1-4-3-2-2-6-5-6-1-3-4-1-8-2-7-3-9-7-2" class="cls-12" d="m937.9,0h-1.35v279.38h1.35V0Z"/><path id="path4-1-4-3-2-2-6-5-6-1-3-4-1-8-2-7-3-9-6-5-0-7-2" class="cls-4" d="m933.86,0h-1.35v279.38h1.35V0Z"/><path id="path4-1-4-3-2-2-6-5-6-1-3-4-1-8-2-7-3-9-6-5-0-8-3-2" class="cls-4" d="m931.17,0h-1.35v279.38h1.35V0Z"/><path id="path4-1-4-3-2-2-6-5-6-1-3-4-1-8-2-7-3-9-6-5-0-0-3-2" class="cls-4" d="m928.48,0h-1.35v279.38h1.35V0Z"/><path id="path4-1-4-3-2-2-6-5-6-1-3-4-1-8-2-7-3-9-6-5-0-0-4-5-2" class="cls-15" d="m924.45,0h-1.35v279.38h1.35V0Z"/><path id="path4-1-4-3-2-2-6-5-6-1-3-4-1-8-2-7-3-9-6-5-0-0-4-6-9-2" class="cls-15" d="m921.76,0h-1.35v279.38h1.35V0Z"/><path id="path4-1-4-3-2-2-6-5-6-1-3-4-1-8-2-7-3-9-6-5-0-0-4-0-9-2" class="cls-15" d="m919.07,0h-1.35v279.38h1.35V0Z"/><path id="path4-1-4-3-2-2-6-5-6-1-3-4-1-8-2-7-3-9-6-5-0-0-4-00-8-2" class="cls-15" d="m916.38,0h-1.35v279.38h1.35V0Z"/><path id="path4-1-4-3-2-2-6-5-6-1-3-4-1-8-2-7-3-9-6-5-0-0-4-6-1-1-2" class="cls-15" d="m913.68,0h-1.35v279.38h1.35V0Z"/><path id="path4-1-4-3-2-2-6-5-6-1-3-4-1-8-2-7-3-9-6-5-0-0-4-0-8-8-2" class="cls-15" d="m910.99,0h-1.35v279.38h1.35V0Z"/><path id="path4-1-4-3-2-2-6-5-6-1-3-4-1-8-2-7-3-9-6-5-0-0-4-0-8-9-2-2" class="cls-8" d="m909.65,0h-8.07v279.38h8.07V0Z"/><path id="path4-1-4-3-2-2-6-5-6-1-3-4-1-8-2-7-3-9-6-5-0-0-4-0-8-9-3-6-2" class="cls-5" d="m908.3,0h-1.35v279.38h1.35V0Z"/><path id="path4-1-4-3-2-2-6-5-6-1-3-4-1-8-2-7-3-9-6-5-0-0-4-0-8-9-3-4-6-2" class="cls-5" d="m905.61,0h-1.35v279.38h1.35V0Z"/><path id="path4-1-4-3-2-2-6-5-6-1-3-4-1-8-2-7-3-9-6-5-0-0-4-0-8-9-3-0-0-2" class="cls-5" d="m902.92,0h-1.35v279.38h1.35V0Z"/><path id="path4-1-4-3-2-2-6-5-6-1-3-4-1-8-2-7-3-9-6-5-0-0-4-0-8-9-3-0-6-3-2" class="cls-5" d="m900.23,0h-1.35v279.38h1.35V0Z"/><path id="path4-1-4-3-2-2-6-5-6-1-3-4-1-8-2-7-3-9-6-5-0-0-4-0-8-9-3-0-61-8-2" class="cls-13" d="m901.58,0h-1.35v279.38h1.35V0Z"/><path id="path4-1-4-3-2-2-6-5-6-1-3-4-1-8-2-7-3-9-6-5-0-0-4-0-8-9-3-0-6-8-0-2" class="cls-5" d="m897.54,0h-1.35v279.38h1.35V0Z"/><path id="path4-1-4-3-2-2-6-5-6-1-3-4-1-8-2-7-3-9-6-5-0-0-4-0-8-9-3-0-61-4-1-2" class="cls-13" d="m898.89,0h-1.35v279.38h1.35V0Z"/><path id="path4-1-4-3-2-2-6-5-6-1-3-4-1-8-2-7-3-9-6-5-0-0-4-0-8-9-3-0-61-4-9-2-2" class="cls-13" d="m896.2,0h-1.35v279.38h1.35V0Z"/><path id="path4-1-4-3-2-2-6-5-6-1-3-4-1-8-2-7-3-9-6-5-0-0-4-0-8-9-3-0-61-4-9-3-5-2" class="cls-13" d="m893.51,0h-1.35v279.38h1.35V0Z"/><path id="path4-1-4-3-2-2-6-5-6-1-3-4-1-8-2-7-3-9-6-5-0-0-4-0-8-9-3-0-61-4-9-3-8-0-2" class="cls-13" d="m890.81,0h-1.35v279.38h1.35V0Z"/><path id="path4-1-4-3-2-2-6-5-6-1-3-4-1-8-2-7-3-9-6-5-0-0-4-0-8-9-3-0-61-4-9-3-2-9-2" class="cls-13" d="m888.12,0h-1.35v279.38h1.35V0Z"/></g></g></g><g id="g3072"><g id="g3214"><g id="g2329-1-5"><path id="path3508-7-2" class="cls-9" d="m0,260.11h23.41v9.63H0v-9.63Z"/><path id="path3510-4-7" class="cls-9" d="m0,240.84h23.41v9.63H0v-9.63Z"/><path id="path3512-0-6" class="cls-9" d="m0,221.58h23.41v9.63H0v-9.63Z"/><path id="path3514-9-1" class="cls-9" d="m0,202.31h23.41v9.63H0v-9.63Z"/><path id="path3516-4-4" class="cls-9" d="m0,183.04h23.41v9.63H0v-9.63Z"/><path id="path3518-8-2" class="cls-9" d="m0,163.77h23.41v9.63H0v-9.63Z"/><path id="path3520-8-3" class="cls-9" d="m0,144.51h23.41v9.63H0v-9.63Z"/><path id="path3522-2-2" class="cls-9" d="m0,125.24h23.41v9.63H0v-9.63Z"/><path id="path3524-4-2" class="cls-9" d="m0,105.97h23.41v9.63H0v-9.63Z"/><path id="path3526-5-1" class="cls-9" d="m0,86.71h23.41v9.63H0v-9.63Z"/><path id="path3528-5-6" class="cls-9" d="m0,67.44h23.41v9.63H0v-9.63Z"/><path id="path3530-1-8" class="cls-9" d="m0,48.17h23.41v9.63H0v-9.63Z"/><path id="path3532-7-5" class="cls-9" d="m0,28.9h23.41v9.63H0v-9.63Z"/><path id="path3534-1-7" class="cls-9" d="m0,9.64h23.41v9.63H0v-9.63Z"/></g></g><g id="g3214-2"><g id="g2329-1-5-5"><path id="path3508-7-2-4" class="cls-9" d="m23.41,269.75h977.19v9.63H23.41v-9.63Z"/><path id="path3510-4-7-3" class="cls-9" d="m23.41,250.48h977.19v9.63H23.41v-9.63Z"/><path id="path3512-0-6-1" class="cls-9" d="m23.41,231.21h977.19v9.63H23.41v-9.63Z"/><path id="path3514-9-1-2" class="cls-9" d="m23.41,211.94h977.19v9.63H23.41v-9.63Z"/><path id="path3516-4-4-3" class="cls-9" d="m23.41,192.68h977.19v9.63H23.41v-9.63Z"/><path id="path3518-8-2-3" class="cls-9" d="m23.41,173.41h977.19v9.63H23.41v-9.63Z"/><path id="path3520-8-3-4" class="cls-9" d="m23.41,154.14h977.19v9.63H23.41v-9.63Z"/><path id="path3522-2-2-1" class="cls-9" d="m23.41,134.87h977.19v9.63H23.41v-9.63Z"/><path id="path3524-4-2-1" class="cls-9" d="m23.41,115.61h977.19v9.63H23.41v-9.63Z"/><path id="path3526-5-1-3" class="cls-9" d="m23.41,96.34h977.19v9.63H23.41v-9.63Z"/><path id="path3528-5-6-8" class="cls-9" d="m23.41,77.07h977.19v9.63H23.41v-9.63Z"/><path id="path3530-1-8-7" class="cls-9" d="m23.41,57.8h977.19v9.63H23.41v-9.63Z"/><path id="path3532-7-5-4" class="cls-9" d="m23.41,38.54h977.19v9.63H23.41v-9.63Z"/><path id="path3534-1-7-2" class="cls-9" d="m23.41,19.27h977.19v9.63H23.41v-9.63Z"/></g></g><g id="g3214-7"><g id="g2329-1-5-1"><path id="path3508-7-2-9" class="cls-9" d="m1000.6,260.11h23.41v9.63h-23.41v-9.63Z"/><path id="path3510-4-7-8" class="cls-9" d="m1000.6,240.84h23.41v9.63h-23.41v-9.63Z"/><path id="path3512-0-6-6" class="cls-9" d="m1000.6,221.58h23.41v9.63h-23.41v-9.63Z"/><path id="path3514-9-1-5" class="cls-9" d="m1000.6,202.31h23.41v9.63h-23.41v-9.63Z"/><path id="path3516-4-4-0" class="cls-9" d="m1000.6,183.04h23.41v9.63h-23.41v-9.63Z"/><path id="path3518-8-2-2" class="cls-9" d="m1000.6,163.77h23.41v9.63h-23.41v-9.63Z"/><path id="path3520-8-3-8" class="cls-9" d="m1000.6,144.51h23.41v9.63h-23.41v-9.63Z"/><path id="path3522-2-2-6" class="cls-9" d="m1000.6,125.24h23.41v9.63h-23.41v-9.63Z"/><path id="path3524-4-2-0" class="cls-9" d="m1000.6,105.97h23.41v9.63h-23.41v-9.63Z"/><path id="path3526-5-1-2" class="cls-9" d="m1000.6,86.71h23.41v9.63h-23.41v-9.63Z"/><path id="path3528-5-6-4" class="cls-9" d="m1000.6,67.44h23.41v9.63h-23.41v-9.63Z"/><path id="path3530-1-8-8" class="cls-9" d="m1000.6,48.17h23.41v9.63h-23.41v-9.63Z"/><path id="path3532-7-5-6" class="cls-9" d="m1000.6,28.9h23.41v9.63h-23.41v-9.63Z"/><path id="path3534-1-7-5" class="cls-9" d="m1000.6,9.64h23.41v9.63h-23.41v-9.63Z"/></g></g><path id="path3534-1-7-2-0" class="cls-9" d="m23.41,0h977.19v9.63H23.41s0-9.63,0-9.63Z"/></g></g></svg>